<svg width="21" height="20" viewBox="0 0 21 20" fill="none" xmlns="http://www.w3.org/2000/svg">
<path d="M10.971 20H10.071C7.42165 19.7651 4.9797 18.4693 3.30004 16.407C1.60411 14.3478 0.792305 11.701 1.04204 9.045C1.43533 4.22905 5.25292 0.403421 10.068 -1.36283e-05C10.462 -0.00206919 10.8333 0.183613 11.068 0.500004C11.2875 0.849151 11.2465 1.30187 10.968 1.606C10.0113 2.90556 9.61517 4.53422 9.86804 6.128C10.0782 7.71686 10.9536 9.14157 12.276 10.047C14.3768 11.6555 17.2952 11.6555 19.396 10.047C19.5873 9.91445 19.8134 9.84139 20.046 9.837C20.2038 9.83727 20.3593 9.8746 20.5 9.946C20.817 10.1825 21.0026 10.5556 21.0001 10.951C20.801 13.6324 19.4926 16.1092 17.39 17.785C15.5442 19.1943 13.2932 19.971 10.971 20ZM8.16304 2.311C5.22167 3.35162 3.17487 6.03424 2.94804 9.146C2.74761 11.2674 3.39674 13.3816 4.75304 15.025C6.09938 16.6691 8.05131 17.7015 10.168 17.889C10.43 17.914 10.696 17.927 10.958 17.927C12.8023 17.9417 14.589 17.2852 15.985 16.08C17.0691 15.168 17.8983 13.9908 18.392 12.663C17.5224 12.9771 16.6047 13.1375 15.68 13.137C13.9494 13.1366 12.2642 12.5834 10.87 11.558C9.18581 10.2776 8.04149 8.41339 7.66204 6.332C7.57175 4.972 7.74179 3.60727 8.16304 2.311Z" fill="#0D1317"/>
</svg>
